<svg xmlns="http://www.w3.org/2000/svg" viewBox="0 0 24 24"><title>48.World</title><g id="_48.World" data-name="48.World"><path fill="#e6e6e6" d="M12,24A12,12,0,1,1,22.691,6.545l-1.781.91a10,10,0,1,0-7.091,14.38l.362,1.967A12.029,12.029,0,0,1,12,24Z"/><polygon fill="#e6e6e6" points="4.707 19.707 3.293 18.293 4.586 17 6.586 17 8 15.586 8 11.764 9 9.764 9 8.236 8.382 7 6.697 7 3.445 4.832 4.555 3.168 7.303 5 9.618 5 11 7.764 11 10.236 10 12.236 10 16.414 7.414 19 5.414 19 4.707 19.707"/><polygon fill="#e6e6e6" points="17.105 7.447 15.882 5 17.105 2.553 18.895 3.447 18.118 5 18.895 6.553 17.105 7.447"/><path fill="#e6e6e6" d="M18,23.447,14.7,20A6,6,0,1,1,21.3,20ZM18,11a3.99,3.99,0,0,0-2.121,7.376l.189.156L18,20.553l2.121-2.177A3.99,3.99,0,0,0,18,11Z"/><rect fill="#e6e6e6" x="17" y="14" width="2" height="2"/></g></svg>